<mxfile host="app.diagrams.net" modified="2022-10-27T08:37:06.387Z" agent="5.0 (Windows NT 10.0; Win64; x64) AppleWebKit/537.36 (KHTML, like Gecko) Chrome/106.0.0.0 Safari/537.36" etag="_loaR0VriOi4CnEt_Uau" version="20.5.1" type="github">
  <diagram id="1wF9dixnSReavJ4twt8r" name="第 1 页">
    <mxGraphModel dx="898" dy="481" grid="0" gridSize="10" guides="1" tooltips="1" connect="1" arrows="1" fold="1" page="1" pageScale="1" pageWidth="4681" pageHeight="3300" math="0" shadow="0">
      <root>
        <mxCell id="0" />
        <mxCell id="1" parent="0" />
        <mxCell id="g7FX2-Ehffjz2p9gin8Z-17" value="10Hz" style="edgeStyle=orthogonalEdgeStyle;rounded=0;orthogonalLoop=1;jettySize=auto;html=1;entryX=1;entryY=0.5;entryDx=0;entryDy=0;exitX=-0.007;exitY=0.828;exitDx=0;exitDy=0;exitPerimeter=0;" edge="1" parent="1" source="g7FX2-Ehffjz2p9gin8Z-1" target="g7FX2-Ehffjz2p9gin8Z-4">
          <mxGeometry relative="1" as="geometry" />
        </mxCell>
        <mxCell id="g7FX2-Ehffjz2p9gin8Z-1" value="" style="rounded=1;whiteSpace=wrap;html=1;" vertex="1" parent="1">
          <mxGeometry x="520" y="105" width="270" height="253" as="geometry" />
        </mxCell>
        <mxCell id="g7FX2-Ehffjz2p9gin8Z-3" value="10Hz" style="edgeStyle=orthogonalEdgeStyle;rounded=0;orthogonalLoop=1;jettySize=auto;html=1;entryX=-0.007;entryY=0.189;entryDx=0;entryDy=0;entryPerimeter=0;" edge="1" parent="1" source="g7FX2-Ehffjz2p9gin8Z-2" target="g7FX2-Ehffjz2p9gin8Z-1">
          <mxGeometry relative="1" as="geometry" />
        </mxCell>
        <mxCell id="g7FX2-Ehffjz2p9gin8Z-2" value="点云" style="rounded=0;whiteSpace=wrap;html=1;" vertex="1" parent="1">
          <mxGeometry x="316" y="123" width="120" height="60" as="geometry" />
        </mxCell>
        <mxCell id="g7FX2-Ehffjz2p9gin8Z-4" value="位置估计" style="rounded=0;whiteSpace=wrap;html=1;" vertex="1" parent="1">
          <mxGeometry x="316" y="285" width="120" height="60" as="geometry" />
        </mxCell>
        <mxCell id="g7FX2-Ehffjz2p9gin8Z-6" value="LeGO-LOAM" style="text;html=1;align=center;verticalAlign=middle;resizable=0;points=[];autosize=1;strokeColor=none;fillColor=none;" vertex="1" parent="1">
          <mxGeometry x="614" y="79" width="88" height="26" as="geometry" />
        </mxCell>
        <mxCell id="g7FX2-Ehffjz2p9gin8Z-9" style="edgeStyle=orthogonalEdgeStyle;rounded=0;orthogonalLoop=1;jettySize=auto;html=1;entryX=0;entryY=0.5;entryDx=0;entryDy=0;" edge="1" parent="1" source="g7FX2-Ehffjz2p9gin8Z-7" target="g7FX2-Ehffjz2p9gin8Z-8">
          <mxGeometry relative="1" as="geometry" />
        </mxCell>
        <mxCell id="g7FX2-Ehffjz2p9gin8Z-7" value="点云分割" style="rounded=1;whiteSpace=wrap;html=1;" vertex="1" parent="1">
          <mxGeometry x="544" y="129" width="89" height="48" as="geometry" />
        </mxCell>
        <mxCell id="g7FX2-Ehffjz2p9gin8Z-13" style="edgeStyle=orthogonalEdgeStyle;rounded=0;orthogonalLoop=1;jettySize=auto;html=1;entryX=0.5;entryY=0;entryDx=0;entryDy=0;" edge="1" parent="1" source="g7FX2-Ehffjz2p9gin8Z-8" target="g7FX2-Ehffjz2p9gin8Z-10">
          <mxGeometry relative="1" as="geometry">
            <Array as="points">
              <mxPoint x="720" y="195" />
              <mxPoint x="589" y="195" />
            </Array>
          </mxGeometry>
        </mxCell>
        <mxCell id="g7FX2-Ehffjz2p9gin8Z-8" value="特征提取" style="rounded=1;whiteSpace=wrap;html=1;" vertex="1" parent="1">
          <mxGeometry x="675" y="129" width="89" height="48" as="geometry" />
        </mxCell>
        <mxCell id="g7FX2-Ehffjz2p9gin8Z-14" value="2Hz" style="edgeStyle=orthogonalEdgeStyle;rounded=0;orthogonalLoop=1;jettySize=auto;html=1;entryX=0;entryY=0.5;entryDx=0;entryDy=0;" edge="1" parent="1" source="g7FX2-Ehffjz2p9gin8Z-10" target="g7FX2-Ehffjz2p9gin8Z-11">
          <mxGeometry relative="1" as="geometry" />
        </mxCell>
        <mxCell id="g7FX2-Ehffjz2p9gin8Z-15" value="10Hz" style="edgeStyle=orthogonalEdgeStyle;rounded=0;orthogonalLoop=1;jettySize=auto;html=1;entryX=0.199;entryY=0.017;entryDx=0;entryDy=0;entryPerimeter=0;" edge="1" parent="1" source="g7FX2-Ehffjz2p9gin8Z-10" target="g7FX2-Ehffjz2p9gin8Z-12">
          <mxGeometry relative="1" as="geometry" />
        </mxCell>
        <mxCell id="g7FX2-Ehffjz2p9gin8Z-10" value="雷达里程测距" style="rounded=1;whiteSpace=wrap;html=1;" vertex="1" parent="1">
          <mxGeometry x="544" y="212" width="89" height="48" as="geometry" />
        </mxCell>
        <mxCell id="g7FX2-Ehffjz2p9gin8Z-16" value="2Hz" style="edgeStyle=orthogonalEdgeStyle;rounded=0;orthogonalLoop=1;jettySize=auto;html=1;entryX=0.783;entryY=-0.013;entryDx=0;entryDy=0;entryPerimeter=0;" edge="1" parent="1" source="g7FX2-Ehffjz2p9gin8Z-11" target="g7FX2-Ehffjz2p9gin8Z-12">
          <mxGeometry relative="1" as="geometry" />
        </mxCell>
        <mxCell id="g7FX2-Ehffjz2p9gin8Z-11" value="激光雷达测绘" style="rounded=1;whiteSpace=wrap;html=1;" vertex="1" parent="1">
          <mxGeometry x="675" y="212" width="89" height="48" as="geometry" />
        </mxCell>
        <mxCell id="g7FX2-Ehffjz2p9gin8Z-12" value="点云分割" style="rounded=1;whiteSpace=wrap;html=1;" vertex="1" parent="1">
          <mxGeometry x="544" y="291" width="224" height="48" as="geometry" />
        </mxCell>
      </root>
    </mxGraphModel>
  </diagram>
</mxfile>
